<svg xmlns="http://www.w3.org/2000/svg" width="399.031" height="61.755" viewBox="0 0 399.031 61.755"><g transform="translate(-62.969 -63.5)"><g transform="translate(-36 -71)"><g transform="translate(98.969 134.5)"><path d="M151.767,305.285H130.161A2.161,2.161,0,0,0,128,307.446v8.643a2.161,2.161,0,0,0,2.161,2.161h21.606a2.161,2.161,0,0,0,2.161-2.161v-8.643A2.161,2.161,0,0,0,151.767,305.285Zm0-17.285H130.161A2.161,2.161,0,0,0,128,290.161V298.8a2.161,2.161,0,0,0,2.161,2.161h21.606a2.161,2.161,0,0,0,2.161-2.161v-8.643A2.161,2.161,0,0,0,151.767,288Zm25.928,17.285H160.41a2.161,2.161,0,0,0-2.161,2.161v8.643a2.161,2.161,0,0,0,2.161,2.161h17.285a2.161,2.161,0,0,0,2.161-2.161v-8.643A2.161,2.161,0,0,0,177.695,305.285Z" transform="translate(-110.715 -256.494)" fill="#840b9b" opacity="0.4"/><path d="M86.426,28.168V74.45a1.08,1.08,0,0,1-1.08,1.08H78.864a1.08,1.08,0,0,1-1.08-1.08V34.478a2.161,2.161,0,0,0-2.161-2.161H10.8a2.161,2.161,0,0,0-2.161,2.161V74.45a1.08,1.08,0,0,1-1.08,1.08H1.08A1.08,1.08,0,0,1,0,74.45V28.168a6.5,6.5,0,0,1,3.984-5.98s19.6-8.414,39.219-8.414,36.827,7.993,39.24,8.414a6.5,6.5,0,0,1,3.984,5.98Z" transform="translate(0 -13.775)" fill="#840b9b"/></g></g><text transform="translate(194 65)" fill="#84009b" font-size="50" font-family="HelveticaNeue-Bold, Helvetica Neue" font-weight="700"><tspan x="0" y="49">Warehouse</tspan></text></g></svg>