<svg xmlns="http://www.w3.org/2000/svg" width="649.966" height="581.453" viewBox="0 0 649.966 581.453">
  <g id="warehouse-artwork" transform="translate(-15.99 -51.585)">
    <g id="freepik--Floor--inject-16" transform="translate(15.99 257.784)">
      <ellipse id="freepik--floor--inject-16-2" data-name="freepik--floor--inject-16" cx="324.983" cy="187.627" rx="324.983" ry="187.627" transform="translate(0 0)" fill="#f5f5f5"/>
    </g>
    <g id="freepik--Shadows--inject-16" transform="translate(117.823 412.224)">
      <ellipse id="freepik--Shadow--inject-16" cx="83.268" cy="48.074" rx="83.268" ry="48.074" transform="translate(302.532 35.562)" fill="#e6e6e6"/>
      <path id="freepik--shadow--inject-16-2" data-name="freepik--shadow--inject-16" d="M365.947,397.377,234.125,473.5a11.164,11.164,0,0,1-10.093,0L92.21,397.377c-2.746-1.607-2.746-4.216,0-5.822l131.822-76.127a11.164,11.164,0,0,1,10.093,0l131.822,76.127C368.693,393.161,368.693,395.771,365.947,397.377Z" transform="translate(-90.15 -314.222)" fill="#e0e0e0"/>
    </g>
    <g id="freepik--Cloud--inject-16" transform="translate(82.725 53.287)">
      <g id="freepik--Clouds--inject-16">
        <path id="Path_51" data-name="Path 51" d="M137.779,70.724l-5.822,1.95V61.565c0-8.8-8.115-10.917-16.917-6.522h0c-8.8,4.408-15.942,15.1-15.942,23.92v1.565a9.612,9.612,0,0,0-7.388.989h0C85.366,84.73,80.258,92.434,80.258,98.764v.742l-8.115,4.119c-4.119,2.087-7.552,7.168-7.552,11.328s3.378,5.863,7.552,3.776l65.664-32.818c4.119-2.087,7.552-7.168,7.552-11.342S141.953,68.637,137.779,70.724Z" transform="translate(-64.59 -52.825)" fill="#ebebeb"/>
        <path id="Path_52" data-name="Path 52" d="M189.085,90.436l-10.546,5.273c0-.412.082-.81.082-1.208v-2.65c0-4.71-3.817-6.619-8.527-4.257A15.709,15.709,0,0,0,165,91.823c-.769-5.918-6.138-8.129-12.647-4.875-7.058,3.529-12.77,12.1-12.77,19.142v3.968a9.282,9.282,0,0,0,1.085,4.586l-8.761,4.38a8.9,8.9,0,0,0-4.737,7.1c0,2.609,2.115,3.68,4.737,2.362l57.178-28.548a8.9,8.9,0,0,0,4.737-7.1C193.823,90.189,191.694,89.132,189.085,90.436Z" transform="translate(-41.238 -40.652)" fill="#ebebeb"/>
      </g>
    </g>
    <g id="freepik--Plants--inject-16" transform="translate(530.94 379.802)">
      <path id="Path_53" data-name="Path 53" d="M398.78,366.339s1.538-35.949,16.6-55.942,33.532-22.877,42.7-17.247c6.673,4.119,5.781,16.272-5.795,24.236s-33.848,28.177-37.336,41.4Z" transform="translate(-388.102 -290.61)" fill="#ba68c8"/>
      <path id="Path_54" data-name="Path 54" d="M398.78,366.339s1.538-35.949,16.6-55.942,33.532-22.877,42.7-17.247c6.673,4.119,5.781,16.272-5.795,24.236s-33.848,28.177-37.336,41.4Z" transform="translate(-388.102 -290.61)" opacity="0.15"/>
      <path id="Path_55" data-name="Path 55" d="M406.282,358.074a.906.906,0,0,0,.865-.961c-1.565-32.612,27.037-52.949,34.837-56.629a.948.948,0,0,0,.439-1.25.92.92,0,0,0-1.236-.439c-7.992,3.762-37.487,24.717-35.88,58.373a.934.934,0,0,0,.975.893Z" transform="translate(-385.69 -287.59)" fill="#fff"/>
      <path id="Path_56" data-name="Path 56" d="M408.849,342.63c2.087-.288,4.119-.659,5.493-2.183,1.758-1.936,1.607-4.875,2.417-7.346,1.373-4.119,5.328-6.866,9.516-7.7a28.7,28.7,0,0,1,12.7.865c8.39,2.06,16.478-3.1,24.868-2.5a16.863,16.863,0,0,1,8.514,2.664,9.118,9.118,0,0,1,4.119,7.635A9.8,9.8,0,0,1,473,340.53a28.535,28.535,0,0,1-6.371,3.982l-7.374,3.762a13.275,13.275,0,0,0-3.433,2.224,9.75,9.75,0,0,0-2.568,7.854c.563,2.829,2.87,5.026,3.556,7.813.906,3.653-1.373,7.566-4.545,9.543a18.7,18.7,0,0,1-10.985,2.142c-3.762-.22-7.5-.975-11.26-1.044a13.5,13.5,0,0,0-7.346,1.593,13.649,13.649,0,0,0-5.163,7.511,20.063,20.063,0,0,1-2.307,5.493,10.711,10.711,0,0,1-5.012,3.488,17.041,17.041,0,0,1-11.754,0c-3.1-1.195-4.628-4.71-5.795-7.745a27,27,0,0,1-1.634-9.942,63.564,63.564,0,0,1,5.795-25.238c1.744-3.653,4.284-7.291,8.129-8.555a24.188,24.188,0,0,1,3.913-.783Z" transform="translate(-391.004 -278.257)" fill="#ba68c8"/>
      <path id="Path_57" data-name="Path 57" d="M398.275,380.07a.81.81,0,0,0,.783-.549c8.774-25.17,50.312-47.072,65.5-49.584a.827.827,0,1,0-.261-1.634c-15.475,2.554-57.837,24.936-66.8,50.669a.838.838,0,0,0,.508,1.057Z" transform="translate(-388.6 -276.549)" fill="#fff"/>
      <path id="Path_58" data-name="Path 58" d="M431.6,358.338a.824.824,0,0,0,.659-.33.838.838,0,0,0-.165-1.167,41.881,41.881,0,0,0-23.069-7.4h0a.824.824,0,0,0,0,1.648,41.016,41.016,0,0,1,22.094,7.072A.8.8,0,0,0,431.6,358.338Z" transform="translate(-384.587 -268.658)" fill="#fff"/>
    </g>
    <g id="freepik--Box--inject-16" transform="translate(84.112 291.508)">
      <g id="freepik--box--inject-16-2" data-name="freepik--box--inject-16" transform="translate(0 0)">
        <g id="freepik--back-box--inject-16" transform="translate(5.204)">
          <path id="Path_59" data-name="Path 59" d="M97.83,392.618,226.109,318.55,354.4,392.618,226.109,466.685Z" transform="translate(-58.778 -191.891)" fill="#ba68c8"/>
          <path id="Path_60" data-name="Path 60" d="M97.83,392.618,226.109,318.55,354.4,392.618,226.109,466.685Z" transform="translate(-58.778 -191.891)" opacity="0.25"/>
          <path id="Path_61" data-name="Path 61" d="M226.818,352.969V226.31L95.93,301.874l109.509,63.439Z" transform="translate(-59.487 -226.31)" fill="#37474f"/>
          <path id="Path_62" data-name="Path 62" d="M191.25,226.31V352.969l21.394,12.345,109.509-63.439Z" transform="translate(-23.918 -226.31)" fill="#263238"/>
          <path id="Path_63" data-name="Path 63" d="M191.25,226.31l42.018,17.81,130.9,75.578-42.018-17.823Z" transform="translate(-23.918 -226.31)" fill="#455a64"/>
          <path id="Path_64" data-name="Path 64" d="M236.722,226.31l-36.43,14.6L69.39,316.471l36.443-14.6Z" transform="translate(-69.39 -226.31)" fill="#455a64"/>
          <path id="Path_65" data-name="Path 65" d="M236.722,226.31,105.133,300.378,69.39,316.471l36.443-14.6Z" transform="translate(-69.39 -226.31)" fill="#fff" opacity="0.2"/>
        </g>
        <g id="freepik--Things--inject-16" transform="translate(75.568 37.8)">
          <circle id="Ellipse_2" data-name="Ellipse 2" cx="16.656" cy="16.656" r="16.656" transform="translate(63.587 82.79)" fill="#ba68c8"/>
          <circle id="Ellipse_3" data-name="Ellipse 3" cx="16.093" cy="16.093" r="16.093" transform="translate(19.269 75.503) rotate(-45)" fill="#ba68c8"/>
          <circle id="Ellipse_4" data-name="Ellipse 4" cx="16.093" cy="16.093" r="16.093" transform="translate(19.269 75.503) rotate(-45)" opacity="0.4"/>
          <circle id="Ellipse_5" data-name="Ellipse 5" cx="22.89" cy="22.89" r="22.89" transform="translate(43.423 17.519) rotate(-22.5)" fill="#ba68c8"/>
          <circle id="Ellipse_6" data-name="Ellipse 6" cx="22.89" cy="22.89" r="22.89" transform="translate(43.423 17.519) rotate(-22.5)" fill="#fff" opacity="0.5"/>
          <path id="Path_66" data-name="Path 66" d="M173.89,289.487c-10.9-7.882-11.8-23.344-3.268-28.987h0a22.89,22.89,0,1,0,32.53,20.762C202.287,292.288,184.779,297.383,173.89,289.487Z" transform="translate(-106.925 -251.352)" fill="#ba68c8" opacity="0.3"/>
          <path id="Path_67" data-name="Path 67" d="M173.89,289.487c-10.9-7.882-11.8-23.344-3.268-28.987h0a22.89,22.89,0,1,0,32.53,20.762C202.287,292.288,184.779,297.383,173.89,289.487Z" transform="translate(-106.925 -251.352)" opacity="0.02"/>
          <path id="Path_68" data-name="Path 68" d="M196.046,267.787l26.461-8.239a8.239,8.239,0,0,1,7.264,1.634l19.663,16.6a8.239,8.239,0,0,1,2.225,7.113L245.6,311.948a8.239,8.239,0,0,1-5.039,5.493L214.1,325.679a8.239,8.239,0,0,1-7.264-1.634l-19.663-16.6a8.239,8.239,0,0,1-2.224-7.113l6.056-27.051a8.239,8.239,0,0,1,5.039-5.493Z" transform="translate(-96.675 -251.801)" fill="#ba68c8"/>
          <path id="Path_69" data-name="Path 69" d="M196.046,267.787l26.461-8.239a8.239,8.239,0,0,1,7.264,1.634l19.663,16.6a8.239,8.239,0,0,1,2.225,7.113L245.6,311.948a8.239,8.239,0,0,1-5.039,5.493L214.1,325.679a8.239,8.239,0,0,1-7.264-1.634l-19.663-16.6a8.239,8.239,0,0,1-2.224-7.113l6.056-27.051a8.239,8.239,0,0,1,5.039-5.493Z" transform="translate(-96.675 -251.801)" opacity="0.15"/>
          <path id="Path_70" data-name="Path 70" d="M249.591,284.259c.165-1.922-1.195-2.939-3.241-2.293l-26.461,8.239a7.9,7.9,0,0,0-3.817,2.911,8.147,8.147,0,0,1,.632-.769L190.71,269.91a7.621,7.621,0,0,1,3.186-2.142l26.447-8.239a8.239,8.239,0,0,1,7.278,1.634l19.664,16.6A8.239,8.239,0,0,1,249.591,284.259Z" transform="translate(-94.484 -251.809)" fill="#ba68c8"/>
          <path id="Path_71" data-name="Path 71" d="M184.941,297.443a8.239,8.239,0,0,0,2.224,7.113l19.663,16.6a8.239,8.239,0,0,0,6.577,1.785c-1.854.275-2.939-.989-2.472-3.062l6.056-27.051a7.553,7.553,0,0,1,1.867-3.337L192.864,267A7.553,7.553,0,0,0,191,270.337Z" transform="translate(-96.679 -248.926)" opacity="0.15"/>
          <path id="Path_72" data-name="Path 72" d="M134.865,273.632l22.835-2.9a6.866,6.866,0,0,1,5.7,2.389L177.048,289.6a6.866,6.866,0,0,1,.783,6.138l-8.912,21.229a6.866,6.866,0,0,1-4.93,3.735l-22.822,2.911a6.866,6.866,0,0,1-5.712-2.4L121.82,304.734a6.866,6.866,0,0,1-.783-6.138l8.9-21.229A6.866,6.866,0,0,1,134.865,273.632Z" transform="translate(-120.629 -247.539)" fill="#ba68c8"/>
          <g id="Group_33" data-name="Group 33" transform="translate(0.014 23.179)" opacity="0.15">
            <path id="Path_73" data-name="Path 73" d="M134.865,273.632l22.835-2.9a6.866,6.866,0,0,1,5.7,2.389L177.048,289.6a6.866,6.866,0,0,1,.783,6.138l-8.912,21.229a6.866,6.866,0,0,1-4.93,3.735l-22.822,2.911a6.866,6.866,0,0,1-5.712-2.4L121.82,304.734a6.866,6.866,0,0,1-.783-6.138l8.9-21.229A6.866,6.866,0,0,1,134.865,273.632Z" transform="translate(-120.643 -270.718)"/>
          </g>
          <path id="Path_74" data-name="Path 74" d="M121.027,297.426a6.866,6.866,0,0,0,.783,6.138l13.635,16.478a6.866,6.866,0,0,0,5.122,2.417c-1.552,0-2.252-1.236-1.579-2.856l8.912-21.229a6.413,6.413,0,0,1,2.073-2.458L132.012,273.78a6.33,6.33,0,0,0-2.019,2.458Z" transform="translate(-120.633 -246.396)" opacity="0.2"/>
          <path id="Path_75" data-name="Path 75" d="M174.928,295.228c.412-1.552-.549-2.568-2.321-2.334l-22.835,2.925a6.605,6.605,0,0,0-3.543,1.826,6.035,6.035,0,0,1,.632-.549L128.9,274.933a6.248,6.248,0,0,1,2.911-1.277l22.822-2.911a6.866,6.866,0,0,1,5.712,2.4l13.649,16.478a6.866,6.866,0,0,1,.934,5.6Z" transform="translate(-117.548 -247.535)" fill="#ba68c8"/>
          <circle id="Ellipse_7" data-name="Ellipse 7" cx="28.397" cy="28.397" r="28.397" transform="translate(139.481 36.446)" fill="#ba68c8"/>
          <circle id="Ellipse_8" data-name="Ellipse 8" cx="28.397" cy="28.397" r="28.397" transform="translate(139.481 36.446)" fill="#fff" opacity="0.5"/>
          <path id="Path_76" data-name="Path 76" d="M242.707,318.276c-13.526-9.791-14.638-29.056-4.119-35.977h0a28.41,28.41,0,1,0,40.384,25.76C277.956,321.709,256.274,328.081,242.707,318.276Z" transform="translate(-82.753 -243.217)" fill="#ba68c8" opacity="0.5"/>
          <path id="Path_77" data-name="Path 77" d="M184.759,279.054a31.212,31.212,0,1,1-34.493,27.463A31.212,31.212,0,0,1,184.759,279.054Z" transform="translate(-109.652 -244.502)" fill="#ba68c8"/>
          <path id="Path_78" data-name="Path 78" d="M184.759,279.054a31.212,31.212,0,1,1-34.493,27.463A31.212,31.212,0,0,1,184.759,279.054Z" transform="translate(-109.652 -244.502)" fill="#fff" opacity="0.7"/>
          <path id="Path_79" data-name="Path 79" d="M191.021,319.961c-12.358,13.567-33.5,12.358-39.821,0h0A31.2,31.2,0,1,0,184.334,279C199.15,281.911,203.38,306.463,191.021,319.961Z" transform="translate(-109.227 -244.449)" fill="#ba68c8" opacity="0.2"/>
          <path id="Path_80" data-name="Path 80" d="M182.37,323.018l16.89-22.506a8.239,8.239,0,0,1,6.948-2.966l26.09,2.018a8.39,8.39,0,0,1,6.056,4.531l10.985,25.87a8.335,8.335,0,0,1-.906,7.511l-16.821,22.492a8.376,8.376,0,0,1-6.962,2.98l-26.09-2.032a8.362,8.362,0,0,1-6.042-4.531l-10.985-25.87a8.376,8.376,0,0,1,.838-7.5Z" transform="translate(-98.104 -237.536)" fill="#ba68c8"/>
          <g id="Group_34" data-name="Group 34" transform="translate(82.904 59.988)" opacity="0.15">
            <path id="Path_81" data-name="Path 81" d="M182.37,323.018l16.89-22.506a8.239,8.239,0,0,1,6.948-2.966l26.09,2.018a8.39,8.39,0,0,1,6.056,4.531l10.985,25.87a8.335,8.335,0,0,1-.906,7.511l-16.821,22.492a8.376,8.376,0,0,1-6.962,2.98l-26.09-2.032a8.362,8.362,0,0,1-6.042-4.531l-10.985-25.87a8.376,8.376,0,0,1,.838-7.5Z" transform="translate(-181.008 -297.524)"/>
          </g>
          <path id="Path_82" data-name="Path 82" d="M192.534,348.482a8.362,8.362,0,0,0,6.042,4.531l26.09,2.032a8.486,8.486,0,0,0,6.481-2.444c-1.373,1.373-3.007.934-3.859-1.057L216.3,325.674a7.786,7.786,0,0,1-.439-3.859L181.15,318.74a7.84,7.84,0,0,0,.439,3.872Z" transform="translate(-98.079 -229.62)" opacity="0.15"/>
          <path id="Path_83" data-name="Path 83" d="M238.069,303.527c-1-1.675-2.746-1.7-4.023,0l-16.89,22.506a8.129,8.129,0,0,0-1.373,4.669,8.24,8.24,0,0,1,0-1.016l-34.713-3.076a7.772,7.772,0,0,1,1.373-3.653l16.876-22.492a8.363,8.363,0,0,1,6.962-2.98l26.09,2.019a8.39,8.39,0,0,1,5.7,4.023Z" transform="translate(-98.081 -237.558)" fill="#ba68c8"/>
        </g>
        <g id="freepik--front-box--inject-16" transform="translate(0 75.564)">
          <path id="Path_84" data-name="Path 84" d="M95.93,281.34V405.006L226.818,480.57V357.124Z" transform="translate(-54.282 -281.34)" fill="#263238"/>
          <path id="Path_85" data-name="Path 85" d="M107.248,281.34,65.6,339.52,196.5,415.3l41.634-58.18Z" transform="translate(-65.6 -281.34)" fill="#455a64"/>
          <path id="Path_86" data-name="Path 86" d="M65.6,323.71l130.174,72.351,42.362-54.747L196.5,399.494Z" transform="translate(-65.6 -265.53)" fill="#fff" opacity="0.2"/>
          <path id="Path_87" data-name="Path 87" d="M322.152,281.34l-.014,123.666L191.25,480.57V357.124" transform="translate(-18.714 -281.34)" fill="#37474f"/>
          <path id="Path_88" data-name="Path 88" d="M191.25,336.53l2.582,118.736,95.063-51.658L191.25,459.976Z" transform="translate(-18.714 -260.746)" fill="#455a64"/>
          <path id="Path_89" data-name="Path 89" d="M322.152,281.34,363.8,339.52,232.9,415.3l-41.648-58.18Z" transform="translate(-18.714 -281.34)" fill="#455a64"/>
          <g id="Group_35" data-name="Group 35" transform="translate(204.934 145.526)" opacity="0.8">
            <path id="Path_90" data-name="Path 90" d="M217.03,407.407a.7.7,0,0,1-.7-.7V391.053a.7.7,0,0,1,1.373,0v15.654A.7.7,0,0,1,217.03,407.407Z" transform="translate(-214.289 -386.137)" fill="#e0e0e0"/>
            <path id="Path_91" data-name="Path 91" d="M215.539,396.66a.687.687,0,0,1-.632-.975L217.393,390l2.746,3.2a.7.7,0,0,1-1.057.92l-1.373-1.524L216.1,396.3A.687.687,0,0,1,215.539,396.66Z" transform="translate(-214.844 -386.32)" fill="#e0e0e0"/>
            <path id="Path_92" data-name="Path 92" d="M221.74,404.727a.7.7,0,0,1-.7-.7V388.373a.7.7,0,0,1,1.373,0v15.654A.7.7,0,0,1,221.74,404.727Z" transform="translate(-212.532 -387.137)" fill="#e0e0e0"/>
            <path id="Path_93" data-name="Path 93" d="M220.251,393.98a.616.616,0,0,1-.275,0,.7.7,0,0,1-.371-.92l2.485-5.74,2.746,3.2a.7.7,0,0,1,0,.989.714.714,0,0,1-.989-.069l-1.373-1.524-1.593,3.694A.7.7,0,0,1,220.251,393.98Z" transform="translate(-213.088 -387.32)" fill="#e0e0e0"/>
          </g>
          <g id="Group_36" data-name="Group 36" transform="translate(181.695 153.053)" opacity="0.8">
            <path id="Path_94" data-name="Path 94" d="M203.72,414.229a1.633,1.633,0,0,1-.769-.192,1.867,1.867,0,0,1-.838-1.675V410.44a.7.7,0,1,1,1.373,0v1.922c0,.275.082.426.137.453s.206,0,.453-.11a4.119,4.119,0,0,0,1.3-3.158v-8.019a.7.7,0,1,1,1.373,0v8.019a5.314,5.314,0,0,1-1.977,4.353,2.2,2.2,0,0,1-1.057.33Z" transform="translate(-196.36 -389.858)" fill="#e0e0e0"/>
            <path id="Path_95" data-name="Path 95" d="M197.92,410.719v-1.167a19.773,19.773,0,0,1,8.939-15.475c2.513-1.456,4.93-1.675,6.77-.6s2.856,3.254,2.856,6.165v.3Zm13.114-16.56a7.14,7.14,0,0,0-3.474,1.085,18.428,18.428,0,0,0-8.17,13.017l15.7-9.063a5.177,5.177,0,0,0-2.156-4.559,3.8,3.8,0,0,0-1.895-.481Z" transform="translate(-197.92 -392.802)" fill="#e0e0e0"/>
          </g>
        </g>
      </g>
    </g>
    <g id="freepik--Character--inject-16" transform="translate(416.731 51.585)">
      <g id="freepik--character--inject-16-2" data-name="freepik--character--inject-16">
        <g id="freepik--back-arm--inject-16" transform="translate(10.931 81.388)">
          <path id="Path_96" data-name="Path 96" d="M359.112,198.8l-15.475-8.884,26.09-38.64-14.514-26.09s-31.1,44.215-37.377,59.965c-3.666,9.214-2.321,12.592,3.405,17.714,3.721,3.337,22.451,14.583,37.418,18.18" transform="translate(-315.792 -105.507)" fill="#f28f8f"/>
          <g id="freepik--character-boy--inject-16" transform="translate(19.414)">
            <path id="Path_97" data-name="Path 97" d="M383.661,111.576a30.827,30.827,0,0,0-14.995.439c-7.168,2.362-11.219,4.833-18.551,15.187-7.14,10.093-20.185,30.594-20.185,30.594a35.358,35.358,0,0,0,23.44,17.109l24.209-36.251Z" transform="translate(-329.93 -110.856)" fill="#37474f"/>
          </g>
        </g>
        <g id="freepik--character--inject-16-3" data-name="freepik--character--inject-16" transform="translate(24.385)">
          <path id="Path_98" data-name="Path 98" d="M370.807,368.75l-16.423.563-.824-29.77,17.247-.563Z" transform="translate(-315.152 55.656)" fill="#ffa8a7"/>
          <path id="Path_99" data-name="Path 99" d="M364.6,357.674c-.851,0-1.538,1.236-3.419,3.268a35.9,35.9,0,0,1-9.612,6.948c-6.152,3.09-18.126,7.827-23.536,10.257-3.378,1.524-3.227,5.616.275,7.937s11.933,4.01,22.067,1.744c5.493-1.236,12.715-6.344,17.26-6.069s13.072.22,16.478-2.1,2.019-7.264,1.071-11.507c-1.044-4.641-2.334-11.864-3.872-11.548V358.2c-1.977,2.993-12.166,4.216-16.478,2.018Z" transform="translate(-325.589 62.228)" fill="#263238"/>
          <rect id="Rectangle_76" data-name="Rectangle 76" width="16.437" height="28.136" transform="translate(84.697 417.32)" fill="#ffa8a7"/>
          <path id="Path_100" data-name="Path 100" d="M394.336,370.718V368.37c-1.579.673-5.232,14.624-11.74,20.6-5.19,4.724-12.262,10.189-14.061,15.448-1.867,5.493,9.845,8.514,14.693,7.662,5.63-1,15.379-4.971,17.851-8.637s3.6-9.09,5.589-11.782,6.577-5.7,7.648-8.816c.59-1.7-.11-5.493-.947-8.623-.755-2.911-1.579-6.1-2.568-5.822v1.785c-1.195,1.373-4.5,2.636-8.239,2.746C400.144,373.025,394.308,372.544,394.336,370.718Z" transform="translate(-309.639 66.623)" fill="#263238"/>
          <path id="Path_101" data-name="Path 101" d="M426.658,208.631c0,15.7-2.746,106.954-2.746,106.954.384,4.518,4.737,12.551,5.067,28.836.494,23.591-8.582,88.348-8.582,88.348a21.6,21.6,0,0,1-18.3.357S394.649,345.342,391.7,322c-2.568-20.364-6.934-75.715-6.934-75.715L377.032,312.8a93.045,93.045,0,0,1,2.032,26.09c-.769,10.807-3.8,77.665-3.8,77.665s-7.731,5.245-18.977,1.456c0,0-11.589-95.324-11.782-105.224-.22-11.3,4.3-126.6,4.3-126.6Z" transform="translate(-318.535 -1.361)" fill="#455a64"/>
          <path id="Path_102" data-name="Path 102" d="M380.017,233.5s-13.127-3.707-22.877-13.127c0,0,4.422,8.239,17.549,15.956l-1.758,58.084Z" transform="translate(-313.816 11.397)" opacity="0.2"/>
          <path id="Path_103" data-name="Path 103" d="M414.926,121.1a15.1,15.1,0,0,1,7.923,8.239,38.639,38.639,0,0,1,2.417,14.212v32.187l.467,60.8c-23.577,12.427-53.553,13.265-78.723-5.108,0,0,1.373-78.269,1.373-91.053v-1.758c.92-18.29,18.922-30.841,36.649-26.282l14.885,3.831,14.954,4.93Z" transform="translate(-317.596 -29.267)" fill="#f0f0f0"/>
          <path id="Path_104" data-name="Path 104" d="M357.985,184.828,347.494,178.8,347,201.045c1.8.426,3.584.81,5.383,1.14,16.766,3.076,36.361.439,42.568-9.612S357.985,184.828,357.985,184.828Z" transform="translate(-317.6 -4.115)" fill="#f28f8f"/>
          <circle id="Ellipse_9" data-name="Ellipse 9" cx="22.588" cy="22.588" r="22.588" transform="translate(23.196 31.945) rotate(-45)" fill="#263238"/>
          <path id="Path_105" data-name="Path 105" d="M396.786,86.54s-3.653,17.192-5.122,20.02a7.758,7.758,0,0,1-4.5,3.625l.261-12.084Z" transform="translate(-302.615 -38.541)" fill="#263238"/>
          <path id="Path_106" data-name="Path 106" d="M391.449,68.625a8.5,8.5,0,0,1,7.017,2.458c3.007,3.09,1.373,12.729-2.43,22.163l-6.866.8Z" transform="translate(-301.864 -45.247)" fill="#263238"/>
          <path id="Path_107" data-name="Path 107" d="M401.023,96.9c1.373.838,3.351-1.826,5.053-3.611s7.264-4.216,10.051,1.634-2.458,13.841-6.866,15.214c-7.552,2.362-8.678-2.472-8.678-2.472l-.563,28.067h0c-9.379,12.029-35.427,10.985-24.579-1.565v-8.239s-6.866,1.03-10.189.522c-5.493-.865-9.035-5.245-10.724-11.246-2.746-9.612-3.735-17.453-1.442-36.443,2.513-20.8,26.721-21.023,39.821-12.8S401.023,96.9,401.023,96.9Z" transform="translate(-315.805 -48.105)" fill="#ffa8a7"/>
          <path id="Path_108" data-name="Path 108" d="M374.063,94.949h-1.195a7.745,7.745,0,0,1-7.484-8.651,8.019,8.019,0,0,1,8.308-6.866h.371A8.047,8.047,0,0,1,382,86.683a7.744,7.744,0,0,1-7.937,8.266Zm-.824-14.2a6.44,6.44,0,0,0-6.509,7.566,6.6,6.6,0,0,0,6.385,5.314h.714a6.591,6.591,0,0,0,6.687-4.971,6.44,6.44,0,0,0-6.028-7.882Z" transform="translate(-310.76 -41.197)" fill="#263238"/>
          <path id="Path_109" data-name="Path 109" d="M357.862,94.491h-1.195a7.758,7.758,0,0,1-7.484-8.623A8.033,8.033,0,0,1,357.491,79h.384a8.019,8.019,0,0,1,7.923,7.236,7.758,7.758,0,0,1-7.937,8.253Zm-.81-14.212a6.454,6.454,0,0,0-6.522,7.566,6.6,6.6,0,0,0,6.413,5.314h.714a6.6,6.6,0,0,0,6.687-4.957,6.44,6.44,0,0,0-6.1-7.827Z" transform="translate(-316.804 -41.357)" fill="#263238"/>
          <path id="Path_110" data-name="Path 110" d="M368.1,83.951a5.657,5.657,0,0,0-3.364-1.373,4.119,4.119,0,0,0-3.6,1.25l-1.016-.81a5.342,5.342,0,0,1,4.724-1.744,6.948,6.948,0,0,1,4.119,1.675C369.334,83.306,368.373,84.212,368.1,83.951Z" transform="translate(-312.704 -40.525)" fill="#263238"/>
          <rect id="Rectangle_77" data-name="Rectangle 77" width="1.304" height="16.478" transform="translate(70.567 45.928) rotate(-88.48)" fill="#263238"/>
          <path id="Path_111" data-name="Path 111" d="M402.41,100.986c.687,0,3.337-4.38,5.053-5.946,2.389-2.17-.687-21.806-.687-21.806s2.293-4.888-2.307-9.942c-3.268-3.6-6.866-5.863-16.231-6.371-8.239-.439-17,2.156-25.06.137a18.235,18.235,0,0,0-5.877-.838,5.987,5.987,0,0,0-4.93,2.856,4.477,4.477,0,0,0,.549,4.861,4.023,4.023,0,0,0-4.751,2.966,5.149,5.149,0,0,0,2.54,5.369c1.8,1.085,3.254.508,5.135.728a14.362,14.362,0,0,1,3.213,1.236,42.375,42.375,0,0,0,9.846,2.183c8.843,1.071,22.616-.22,24.5-.467,2.568-.357,3.117,2.128,4.5,8.925C399.06,90.838,400.145,100.945,402.41,100.986Z" transform="translate(-317.192 -49.856)" fill="#263238"/>
          <path id="Path_112" data-name="Path 112" d="M390.964,71.654l8.349-4.49A4.6,4.6,0,0,0,393,65.077a4.971,4.971,0,0,0-2.032,6.577Z" transform="translate(-301.393 -46.752)" fill="#263238"/>
          <path id="Path_113" data-name="Path 113" d="M369.06,111.144s12.358-2.5,16.725-4.806a14.308,14.308,0,0,0,5.987-5.918,19.555,19.555,0,0,1-3.405,6.989c-3.172,4.051-19.306,7.031-19.306,7.031Z" transform="translate(-309.368 -33.362)" fill="#f28f8f"/>
          <path id="Path_114" data-name="Path 114" d="M369.5,85.568A2.485,2.485,0,1,0,371.972,83a2.554,2.554,0,0,0-2.472,2.568Z" transform="translate(-309.204 -39.862)" fill="#263238"/>
          <path id="Path_115" data-name="Path 115" d="M371.41,78.452l5.314,2.925a3.186,3.186,0,0,0-1.236-4.229,2.966,2.966,0,0,0-4.078,1.3Z" transform="translate(-308.492 -42.18)" fill="#263238"/>
          <path id="Path_116" data-name="Path 116" d="M371.411,97.36l-5.671,2.128a2.98,2.98,0,0,0,3.859,1.881A3.172,3.172,0,0,0,371.411,97.36Z" transform="translate(-310.607 -34.504)" fill="#f28f8f"/>
          <path id="Path_117" data-name="Path 117" d="M354.05,80.894l4.847-3.721a2.939,2.939,0,0,0-4.216-.645,3.2,3.2,0,0,0-.632,4.367Z" transform="translate(-315.19 -42.508)" fill="#263238"/>
          <path id="Path_118" data-name="Path 118" d="M355,85.052a2.485,2.485,0,1,0,2.485-2.582A2.527,2.527,0,0,0,355,85.052Z" transform="translate(-314.615 -40.06)" fill="#263238"/>
          <path id="Path_119" data-name="Path 119" d="M366.763,83.38l-.824,14.94-7.8-2.664Z" transform="translate(-313.443 -39.721)" fill="#f28f8f"/>
        </g>
        <g id="freepik--Objects--inject-16" transform="translate(0 97.172)">
          <circle id="Ellipse_10" data-name="Ellipse 10" cx="13.031" cy="13.031" r="13.031" transform="translate(37.293 55.983)" fill="#ba68c8"/>
          <circle id="Ellipse_11" data-name="Ellipse 11" cx="13.031" cy="13.031" r="13.031" transform="translate(37.293 55.983)" opacity="0.4"/>
          <path id="Path_120" data-name="Path 120" d="M382.459,137.426l-17-13.828a6.522,6.522,0,0,0-5.822-.934l-19.293,6.44a6.509,6.509,0,0,0-3.721,4.573L333.149,155.3a6.509,6.509,0,0,0,2.1,5.493l17,13.828a6.564,6.564,0,0,0,5.822.934l19.224-6.44a6.536,6.536,0,0,0,3.721-4.573l3.474-21.627A6.509,6.509,0,0,0,382.459,137.426Z" transform="translate(-298.397 -122.349)" fill="#ba68c8"/>
          <path id="Path_121" data-name="Path 121" d="M382.459,137.426l-17-13.828a6.522,6.522,0,0,0-5.822-.934l-19.293,6.44a6.509,6.509,0,0,0-3.721,4.573L333.149,155.3a6.509,6.509,0,0,0,2.1,5.493l17,13.828a6.564,6.564,0,0,0,5.822.934l19.224-6.44a6.536,6.536,0,0,0,3.721-4.573l3.474-21.627A6.509,6.509,0,0,0,382.459,137.426Z" transform="translate(-298.397 -122.349)" opacity="0.15"/>
          <path id="Path_122" data-name="Path 122" d="M335.73,133.184c.439-1.456,1.73-1.813,3.048-.728l17.013,13.828a6.371,6.371,0,0,1,1.95,3.254c-.069-.247-.151-.508-.247-.755l25.65-8.857a6.015,6.015,0,0,0-1.7-2.513l-17-13.814a6.454,6.454,0,0,0-5.808-.934l-19.306,6.426a6.55,6.55,0,0,0-3.6,4.092Z" transform="translate(-297.421 -122.35)" fill="#ba68c8"/>
          <path id="Path_123" data-name="Path 123" d="M375.741,159.784a6.536,6.536,0,0,1-3.721,4.573L352.8,170.8a6.578,6.578,0,0,1-5.355-.618c1.277.728,2.444.124,2.746-1.538l3.474-21.627a5.96,5.96,0,0,0-.384-3.007l25.65-8.857a5.973,5.973,0,0,1,.4,3.007Z" transform="translate(-293.051 -117.574)" opacity="0.2"/>
          <circle id="Ellipse_12" data-name="Ellipse 12" cx="24.607" cy="24.607" r="24.607" transform="matrix(0.693, -0.721, 0.721, 0.693, 0, 54.215)" fill="#ba68c8"/>
          <circle id="Ellipse_13" data-name="Ellipse 13" cx="24.607" cy="24.607" r="24.607" transform="matrix(0.693, -0.721, 0.721, 0.693, 0, 54.215)" fill="#fff" opacity="0.7"/>
          <path id="Path_124" data-name="Path 124" d="M348.442,174.828c9.31-11.081,6.179-27.463-4.119-31.088h0a24.607,24.607,0,1,1-28.493,30.141C319.565,185.154,339.132,185.909,348.442,174.828Z" transform="translate(-304.846 -114.369)" fill="#ba68c8" opacity="0.2"/>
          <path id="Path_125" data-name="Path 125" d="M399.522,180.876,393.357,158.1a7.017,7.017,0,0,0-4.49-4.476L367.94,147.11a7.017,7.017,0,0,0-6.124,1.648l-16.643,16.725a7,7,0,0,0-1.62,6.138l6.165,22.781a7.031,7.031,0,0,0,4.5,4.476l20.913,6.509a7,7,0,0,0,6.124-1.648l16.656-16.725a7,7,0,0,0,1.607-6.138Z" transform="translate(-294.561 -113.167)" fill="#ba68c8"/>
          <path id="Path_126" data-name="Path 126" d="M379.515,195.922a7,7,0,0,1-6.124,1.648l-20.913-6.509a7.14,7.14,0,0,1-4.3-3.913c.659,1.456,2.06,1.648,3.337.371L368.1,170.78a6.385,6.385,0,0,0,1.552-2.87l28,8.362a6.522,6.522,0,0,1-1.538,2.87Z" transform="translate(-292.775 -105.35)" opacity="0.2"/>
          <path id="Path_127" data-name="Path 127" d="M357.09,148.409c1.373-1,2.65-.494,3.131,1.277l6.165,22.794a6.77,6.77,0,0,1-.357,4.119,5.114,5.114,0,0,0,.275-.81l28,8.321a6.62,6.62,0,0,0,.082-3.268l-6.165-22.781a6.989,6.989,0,0,0-4.49-4.476l-20.927-6.55a7.058,7.058,0,0,0-5.712,1.373Z" transform="translate(-289.45 -113.188)" fill="#ba68c8"/>
          <path id="Path_128" data-name="Path 128" d="M357.09,148.409c1.373-1,2.65-.494,3.131,1.277l6.165,22.794a6.77,6.77,0,0,1-.357,4.119,5.114,5.114,0,0,0,.275-.81l28,8.321a6.62,6.62,0,0,0,.082-3.268l-6.165-22.781a6.989,6.989,0,0,0-4.49-4.476l-20.927-6.55a7.058,7.058,0,0,0-5.712,1.373Z" transform="translate(-289.45 -113.188)" fill="#fff" opacity="0.5"/>
        </g>
        <g id="freepik--front-arm--inject-16" transform="translate(9.644 91.829)">
          <path id="Path_129" data-name="Path 129" d="M390.88,218.334a274.972,274.972,0,0,1-41.346,2.128c-6.275-.206-12.427.11-19.046-1.977-17.727-5.589-17.151-20.213-13.731-20.789.906,1.73,2.293,2.939,6.989,3.241s10.024-1.14,9.845-3.117c0-.8-2.746-2.939-3.3-3.6a20.817,20.817,0,0,1-2.815-3.666c-.906-1.648-2.238-5.245-.288-6.715,1.744-1.373,1.373-1.03,4.545,1.538s6.687,3.9,10.779,7.882c3.611,3.5,5.163,4.875,9.516,6.6,4.724,1.881,9.173,1.373,22.272-.769,11.328-1.813,16.807-3.09,21.449-4.586,5.836-8.884,18.689-58.1,24.813-68.383,2.334-3.927,6.028-3.6,9.777-1.579a20.3,20.3,0,0,1,9.3,24.36c-1.373,4.119-3.131,9.53-5.2,16.231-5.493,17.92-12.29,34.013-21.97,46.22C407.769,217.332,397.223,217.593,390.88,218.334Z" transform="translate(-314.854 -116.735)" fill="#ffa8a7"/>
          <path id="Path_130" data-name="Path 130" d="M368.633,196.121a20.941,20.941,0,0,0,8.568-6.4c1.895-2.238,5.712-4.71,7.772-6.783s3.021,2.17.934,5.342-4.751,7.69-1.552,7.182,13.5-3.337,16.478-8.39a8.541,8.541,0,0,1-.536,9.777c-3.762,5.081-13.333,12.358-49.6,3.859C350.631,200.708,363.965,198.181,368.633,196.121Z" transform="translate(-301.479 -94.605)" fill="#f28f8f"/>
          <path id="Path_131" data-name="Path 131" d="M402.922,118.46c5.891,1.057,13.731,3.241,15.887,17.4s-13.732,48.925-13.732,48.925-10.546,4.449-25.9-9.214c0,0,10.065-36.622,13.663-45.781S402.922,118.46,402.922,118.46Z" transform="translate(-290.851 -118.46)" fill="#37474f"/>
        </g>
      </g>
    </g>
  </g>
</svg>
