<svg xmlns="http://www.w3.org/2000/svg" width="448" height="121" viewBox="0 0 448 121">
  <g id="logo" transform="translate(-45 -34)">
    <rect id="Rectangle_54" data-name="Rectangle 54" width="448" height="121" transform="translate(45 34)" fill="none"/>
    <g id="Group_31" data-name="Group 31" transform="translate(6.031)">
      <g id="purple_ikon" transform="translate(-36 -71)">
        <g id="warehouse-alt" transform="translate(98.969 134.5)">
          <path id="Path_1" data-name="Path 1" d="M151.767,305.285H130.161A2.161,2.161,0,0,0,128,307.446v8.643a2.161,2.161,0,0,0,2.161,2.161h21.606a2.161,2.161,0,0,0,2.161-2.161v-8.643A2.161,2.161,0,0,0,151.767,305.285Zm0-17.285H130.161A2.161,2.161,0,0,0,128,290.161V298.8a2.161,2.161,0,0,0,2.161,2.161h21.606a2.161,2.161,0,0,0,2.161-2.161v-8.643A2.161,2.161,0,0,0,151.767,288Zm25.928,17.285H160.41a2.161,2.161,0,0,0-2.161,2.161v8.643a2.161,2.161,0,0,0,2.161,2.161h17.285a2.161,2.161,0,0,0,2.161-2.161v-8.643A2.161,2.161,0,0,0,177.695,305.285Z" transform="translate(-110.715 -256.494)" fill="#840b9b" opacity="0.4"/>
          <path id="Path_2" data-name="Path 2" d="M86.426,28.168V74.45a1.08,1.08,0,0,1-1.08,1.08H78.864a1.08,1.08,0,0,1-1.08-1.08V34.478a2.161,2.161,0,0,0-2.161-2.161H10.8a2.161,2.161,0,0,0-2.161,2.161V74.45a1.08,1.08,0,0,1-1.08,1.08H1.08A1.08,1.08,0,0,1,0,74.45V28.168a6.5,6.5,0,0,1,3.984-5.98s19.6-8.414,39.219-8.414,36.827,7.993,39.24,8.414a6.5,6.5,0,0,1,3.984,5.98Z" transform="translate(0 -13.775)" fill="#840b9b"/>
        </g>
      </g>
      <path id="Path_11" data-name="Path 11" d="M37.45,49l9.6-35.7h-7.7L33.5,37.9h-.1L27.3,13.3H19.95l-6.2,24.3h-.1L8,13.3H.15L9.6,49h7.95L23.5,24.7h.1L29.65,49Zm10.3-17.9A8.247,8.247,0,0,1,49,26.95a8.512,8.512,0,0,1,2.8-2.65,12.2,12.2,0,0,1,3.825-1.425A21.746,21.746,0,0,1,59.9,22.45a28.973,28.973,0,0,1,3.95.275A12.083,12.083,0,0,1,67.5,23.8a7.192,7.192,0,0,1,2.7,2.225A6.217,6.217,0,0,1,71.25,29.8V43.25a27.013,27.013,0,0,0,.2,3.35,6.056,6.056,0,0,0,.7,2.4h-7.2a10.189,10.189,0,0,1-.325-1.225A10.666,10.666,0,0,1,64.45,46.5a9.252,9.252,0,0,1-4,2.45,16.055,16.055,0,0,1-4.7.7,12.7,12.7,0,0,1-3.45-.45,7.9,7.9,0,0,1-2.8-1.4,6.517,6.517,0,0,1-1.875-2.4,8.114,8.114,0,0,1-.675-3.45,7.537,7.537,0,0,1,.775-3.625,6.48,6.48,0,0,1,2-2.275,8.961,8.961,0,0,1,2.8-1.275A29.891,29.891,0,0,1,55.7,34.1q1.6-.25,3.15-.4a18.943,18.943,0,0,0,2.75-.45,4.794,4.794,0,0,0,1.9-.875,1.921,1.921,0,0,0,.65-1.675,3.767,3.767,0,0,0-.375-1.825,2.758,2.758,0,0,0-1-1.05,3.934,3.934,0,0,0-1.45-.5A11.865,11.865,0,0,0,59.55,27.2a5.389,5.389,0,0,0-3.3.9,4.018,4.018,0,0,0-1.4,3Zm16.4,5.25a3.185,3.185,0,0,1-1.125.625,11.49,11.49,0,0,1-1.45.375q-.775.15-1.625.25t-1.7.25a12.822,12.822,0,0,0-1.575.4,4.657,4.657,0,0,0-1.35.675A3.209,3.209,0,0,0,54.4,40a3.458,3.458,0,0,0-.35,1.65,3.34,3.34,0,0,0,.35,1.6,2.683,2.683,0,0,0,.95,1.025,4.009,4.009,0,0,0,1.4.525,8.935,8.935,0,0,0,1.65.15,6.276,6.276,0,0,0,3.25-.7,4.682,4.682,0,0,0,1.7-1.675,5.357,5.357,0,0,0,.675-1.975A13.567,13.567,0,0,0,64.15,39Zm12.6-13.2V49h7.1V37.35a14.288,14.288,0,0,1,.35-3.25,7.117,7.117,0,0,1,1.175-2.625A5.715,5.715,0,0,1,87.55,29.7a7.564,7.564,0,0,1,3.3-.65,12.68,12.68,0,0,1,1.35.075q.7.075,1.2.175V22.7a5.537,5.537,0,0,0-1.55-.25,8.479,8.479,0,0,0-2.6.4,9.528,9.528,0,0,0-2.35,1.125,8.844,8.844,0,0,0-1.95,1.75A8.732,8.732,0,0,0,83.6,27.95h-.1v-4.8ZM112.7,33.3H101.15a8.149,8.149,0,0,1,.325-1.7,5.22,5.22,0,0,1,.95-1.8,5.378,5.378,0,0,1,1.8-1.425,6.177,6.177,0,0,1,2.825-.575,4.986,4.986,0,0,1,3.875,1.4A8.206,8.206,0,0,1,112.7,33.3Zm-11.55,4.5H119.8a18.25,18.25,0,0,0-.5-5.75,14.074,14.074,0,0,0-2.275-4.9A11.476,11.476,0,0,0,113,23.725a12.292,12.292,0,0,0-5.75-1.275,13.388,13.388,0,0,0-5.375,1.05A12.5,12.5,0,0,0,95,30.7a15.076,15.076,0,0,0-.95,5.4,15.739,15.739,0,0,0,.925,5.5A12.49,12.49,0,0,0,97.6,45.9a11.436,11.436,0,0,0,4.15,2.775,14.764,14.764,0,0,0,5.5.975,13.54,13.54,0,0,0,7.5-2,11.864,11.864,0,0,0,4.6-6.65H113.1a4.459,4.459,0,0,1-1.9,2.275,7.279,7.279,0,0,1-8.3-.475Q101.3,41.25,101.15,37.8ZM124,13.3V49h7.1V35.45q0-3.95,1.3-5.675a4.919,4.919,0,0,1,4.2-1.725,3.873,3.873,0,0,1,3.55,1.575,9.059,9.059,0,0,1,1,4.775V49h7.1V33.1a20.834,20.834,0,0,0-.425-4.375,8.32,8.32,0,0,0-1.475-3.35,6.931,6.931,0,0,0-2.875-2.15,12.058,12.058,0,0,0-4.675-.775,9.312,9.312,0,0,0-4.1,1.025,8.222,8.222,0,0,0-3.45,3.275h-.15V13.3Zm35.95,22.8a15.514,15.514,0,0,1,.3-3.05,7.782,7.782,0,0,1,1.025-2.65,5.461,5.461,0,0,1,4.925-2.6,5.849,5.849,0,0,1,3.025.725,5.685,5.685,0,0,1,1.95,1.875,7.782,7.782,0,0,1,1.025,2.65,15.514,15.514,0,0,1,.3,3.05,15.14,15.14,0,0,1-.3,3.025,8.059,8.059,0,0,1-1.025,2.65,5.4,5.4,0,0,1-1.95,1.875,6.017,6.017,0,0,1-3.025.7,5.876,5.876,0,0,1-3-.7,5.459,5.459,0,0,1-1.925-1.875,8.059,8.059,0,0,1-1.025-2.65A15.14,15.14,0,0,1,159.95,36.1Zm-7.1,0a15.663,15.663,0,0,0,.95,5.6,12.148,12.148,0,0,0,2.7,4.275,11.811,11.811,0,0,0,4.2,2.725,15.11,15.11,0,0,0,5.5.95,15.311,15.311,0,0,0,5.525-.95,11.767,11.767,0,0,0,4.225-2.725,12.148,12.148,0,0,0,2.7-4.275,15.663,15.663,0,0,0,.95-5.6,15.868,15.868,0,0,0-.95-5.625,11.773,11.773,0,0,0-6.925-7.05,14.96,14.96,0,0,0-5.525-.975,14.764,14.764,0,0,0-5.5.975,11.822,11.822,0,0,0-6.9,7.05A15.868,15.868,0,0,0,152.85,36.1ZM208.45,49V23.15h-7.1V36.7q0,3.95-1.3,5.675a4.919,4.919,0,0,1-4.2,1.725,3.873,3.873,0,0,1-3.55-1.575,9.059,9.059,0,0,1-1-4.775V23.15h-7.1v15.9a20.834,20.834,0,0,0,.425,4.375,8.321,8.321,0,0,0,1.475,3.35,6.747,6.747,0,0,0,2.875,2.125,12.419,12.419,0,0,0,4.675.75,10.33,10.33,0,0,0,4.4-1,7.988,7.988,0,0,0,3.5-3.25h.15V49Zm10.9-8.4H212.6a8.692,8.692,0,0,0,1.175,4.325,8.579,8.579,0,0,0,2.75,2.775,11.614,11.614,0,0,0,3.825,1.5,21.421,21.421,0,0,0,4.4.45,22,22,0,0,0,4.325-.425,10.965,10.965,0,0,0,3.775-1.475,7.852,7.852,0,0,0,3.7-7.05,6.017,6.017,0,0,0-.7-3.025,6.408,6.408,0,0,0-1.85-2.05,9.951,9.951,0,0,0-2.625-1.325,29.994,29.994,0,0,0-3.025-.85q-1.5-.35-2.95-.65a22.815,22.815,0,0,1-2.575-.675A5.4,5.4,0,0,1,221,31.15a1.947,1.947,0,0,1-.7-1.55,1.915,1.915,0,0,1,.4-1.275,2.626,2.626,0,0,1,.975-.725,4.34,4.34,0,0,1,1.275-.325,12.256,12.256,0,0,1,1.3-.075,7.085,7.085,0,0,1,3.3.725A3.106,3.106,0,0,1,229.1,30.7h6.75a8.481,8.481,0,0,0-1.225-3.975A8.092,8.092,0,0,0,232.05,24.2a10.779,10.779,0,0,0-3.525-1.35,20.48,20.48,0,0,0-4.075-.4,22.2,22.2,0,0,0-4.1.375,11.29,11.29,0,0,0-3.6,1.3,7.187,7.187,0,0,0-2.575,2.525,7.778,7.778,0,0,0-.975,4.1,5.526,5.526,0,0,0,.7,2.875,6.078,6.078,0,0,0,1.85,1.95,10.337,10.337,0,0,0,2.625,1.25q1.475.475,3.025.825a42.435,42.435,0,0,1,5.925,1.6q2.125.8,2.125,2.4a2.627,2.627,0,0,1-.45,1.575,3.41,3.41,0,0,1-1.125,1,5.358,5.358,0,0,1-1.5.55,7.594,7.594,0,0,1-1.575.175,8.121,8.121,0,0,1-2.025-.25,5.252,5.252,0,0,1-1.725-.775,4.15,4.15,0,0,1-1.225-1.35A3.894,3.894,0,0,1,219.35,40.6Zm38.75-7.3H246.55a8.15,8.15,0,0,1,.325-1.7,5.22,5.22,0,0,1,.95-1.8,5.378,5.378,0,0,1,1.8-1.425,6.177,6.177,0,0,1,2.825-.575,4.986,4.986,0,0,1,3.875,1.4A8.206,8.206,0,0,1,258.1,33.3Zm-11.55,4.5H265.2a18.25,18.25,0,0,0-.5-5.75,14.074,14.074,0,0,0-2.275-4.9,11.476,11.476,0,0,0-4.025-3.425,12.292,12.292,0,0,0-5.75-1.275,13.388,13.388,0,0,0-5.375,1.05,12.5,12.5,0,0,0-6.875,7.2,15.077,15.077,0,0,0-.95,5.4,15.739,15.739,0,0,0,.925,5.5A12.49,12.49,0,0,0,243,45.9a11.436,11.436,0,0,0,4.15,2.775,14.764,14.764,0,0,0,5.5.975,13.54,13.54,0,0,0,7.5-2,11.864,11.864,0,0,0,4.6-6.65H258.5a4.459,4.459,0,0,1-1.9,2.275,7.279,7.279,0,0,1-8.3-.475Q246.7,41.25,246.55,37.8Z" transform="translate(193.969 65)" fill="#84009b"/>
    </g>
  </g>
</svg>
