<?xml version="1.0" encoding="UTF-8" standalone="no"?><svg xmlns="http://www.w3.org/2000/svg" xmlns:xlink="http://www.w3.org/1999/xlink" contentScriptType="application/ecmascript" contentStyleType="text/css" height="472px" preserveAspectRatio="none" style="width:351px;height:472px;background:#FFFFFF;" version="1.1" viewBox="0 0 351 472" width="351px" zoomAndPan="magnify"><defs><filter height="300%" id="f1w2ge20wil2xn" width="300%" x="-1" y="-1"><feGaussianBlur result="blurOut" stdDeviation="2.0"/><feColorMatrix in="blurOut" result="blurOut2" type="matrix" values="0 0 0 0 0 0 0 0 0 0 0 0 0 0 0 0 0 0 .4 0"/><feOffset dx="4.0" dy="4.0" in="blurOut2" result="blurOut3"/><feBlend in="SourceGraphic" in2="blurOut3" mode="normal"/></filter></defs><g><!--MD5=[44a1b4afaef76c16e6c9ec4990ad0c8d]
class Item--><a href="java:core.Item" target="_top" title="java:core.Item" xlink:actuate="onRequest" xlink:href="java:core.Item" xlink:show="new" xlink:title="java:core.Item" xlink:type="simple"><rect codeLine="1" fill="#FEFECE" filter="url(#f1w2ge20wil2xn)" height="283.2109" id="Item" style="stroke:#A80036;stroke-width:1.5;" width="186" x="9" y="175"/><ellipse cx="85.75" cy="191" fill="#ADD1B2" rx="11" ry="11" style="stroke:#A80036;stroke-width:1.0;"/><path d="M88.5156,186.875 Q88.6719,186.6563 88.8594,186.5469 Q89.0469,186.4375 89.2656,186.4375 Q89.6406,186.4375 89.875,186.7031 Q90.1094,186.9531 90.1094,187.5625 L90.1094,189.0156 Q90.1094,189.625 89.875,189.8906 Q89.6406,190.1563 89.2656,190.1563 Q88.9219,190.1563 88.7188,189.9531 Q88.5156,189.7656 88.4063,189.25 Q88.3594,188.8906 88.1719,188.7031 Q87.8438,188.3281 87.2344,188.1094 Q86.625,187.8906 86,187.8906 Q85.2344,187.8906 84.5938,188.2188 Q83.9688,188.5469 83.4688,189.2969 Q82.9844,190.0469 82.9844,191.0781 L82.9844,192.1719 Q82.9844,193.4063 83.875,194.2344 Q84.7656,195.0469 86.3594,195.0469 Q87.2969,195.0469 87.9531,194.7969 Q88.3438,194.6406 88.7656,194.2031 Q89.0313,193.9375 89.1719,193.8594 Q89.3281,193.7813 89.5313,193.7813 Q89.8594,193.7813 90.1094,194.0469 Q90.375,194.2969 90.375,194.6406 Q90.375,194.9844 90.0313,195.3906 Q89.5313,195.9688 88.7344,196.2969 Q87.6563,196.75 86.3594,196.75 Q84.8438,196.75 83.6406,196.125 Q82.6563,195.625 81.9688,194.5625 Q81.2813,193.4844 81.2813,192.2031 L81.2813,191.0469 Q81.2813,189.7188 81.8906,188.5781 Q82.5156,187.4219 83.6094,186.8125 Q84.7031,186.1875 85.9375,186.1875 Q86.6719,186.1875 87.3125,186.3594 Q87.9688,186.5156 88.5156,186.875 Z " fill="#000000"/><text fill="#000000" font-family="sans-serif" font-size="12" lengthAdjust="spacing" textLength="24" x="106.25" y="195.9102">Item</text><line style="stroke:#A80036;stroke-width:1.5;" x1="10" x2="194" y1="207" y2="207"/><rect fill="none" height="6" style="stroke:#C82930;stroke-width:1.0;" width="6" x="17" y="215"/><text fill="#000000" font-family="sans-serif" font-size="11" lengthAdjust="spacing" textLength="39" x="29" y="222.4189">String id</text><rect fill="none" height="6" style="stroke:#C82930;stroke-width:1.0;" width="6" x="17" y="228.8359"/><text fill="#000000" font-family="sans-serif" font-size="11" lengthAdjust="spacing" textLength="57" x="29" y="236.2549">String name</text><rect fill="none" height="6" style="stroke:#C82930;stroke-width:1.0;" width="6" x="17" y="242.6719"/><text fill="#000000" font-family="sans-serif" font-size="11" lengthAdjust="spacing" textLength="49" x="29" y="250.0908">int amount</text><rect fill="none" height="6" style="stroke:#C82930;stroke-width:1.0;" width="6" x="17" y="256.5078"/><text fill="#000000" font-family="sans-serif" font-size="11" lengthAdjust="spacing" textLength="71" x="29" y="263.9268">String barcode</text><rect fill="none" height="6" style="stroke:#C82930;stroke-width:1.0;" width="6" x="17" y="270.3438"/><text fill="#000000" font-family="sans-serif" font-size="11" lengthAdjust="spacing" textLength="59" x="29" y="277.7627">String brand</text><rect fill="none" height="6" style="stroke:#C82930;stroke-width:1.0;" width="6" x="17" y="284.1797"/><text fill="#000000" font-family="sans-serif" font-size="11" lengthAdjust="spacing" textLength="94" x="29" y="291.5986">Double regularPrice</text><rect fill="none" height="6" style="stroke:#C82930;stroke-width:1.0;" width="6" x="17" y="298.0156"/><text fill="#000000" font-family="sans-serif" font-size="11" lengthAdjust="spacing" textLength="80" x="29" y="305.4346">Double salePrice</text><rect fill="none" height="6" style="stroke:#C82930;stroke-width:1.0;" width="6" x="17" y="311.8516"/><text fill="#000000" font-family="sans-serif" font-size="11" lengthAdjust="spacing" textLength="106" x="29" y="319.2705">Double purchasePrice</text><rect fill="none" height="6" style="stroke:#C82930;stroke-width:1.0;" width="6" x="17" y="325.6875"/><text fill="#000000" font-family="sans-serif" font-size="11" lengthAdjust="spacing" textLength="66" x="29" y="333.1064">String section</text><rect fill="none" height="6" style="stroke:#C82930;stroke-width:1.0;" width="6" x="17" y="339.5234"/><text fill="#000000" font-family="sans-serif" font-size="11" lengthAdjust="spacing" textLength="51" x="29" y="346.9424">String row</text><rect fill="none" height="6" style="stroke:#C82930;stroke-width:1.0;" width="6" x="17" y="353.3594"/><text fill="#000000" font-family="sans-serif" font-size="11" lengthAdjust="spacing" textLength="55" x="29" y="360.7783">String shelf</text><rect fill="none" height="6" style="stroke:#C82930;stroke-width:1.0;" width="6" x="17" y="367.1953"/><text fill="#000000" font-family="sans-serif" font-size="11" lengthAdjust="spacing" textLength="65" x="29" y="374.6143">Double height</text><rect fill="none" height="6" style="stroke:#C82930;stroke-width:1.0;" width="6" x="17" y="381.0313"/><text fill="#000000" font-family="sans-serif" font-size="11" lengthAdjust="spacing" textLength="63" x="29" y="388.4502">Double width</text><rect fill="none" height="6" style="stroke:#C82930;stroke-width:1.0;" width="6" x="17" y="394.8672"/><text fill="#000000" font-family="sans-serif" font-size="11" lengthAdjust="spacing" textLength="65" x="29" y="402.2861">Double length</text><rect fill="none" height="6" style="stroke:#C82930;stroke-width:1.0;" width="6" x="17" y="408.7031"/><text fill="#000000" font-family="sans-serif" font-size="11" lengthAdjust="spacing" textLength="69" x="29" y="416.1221">Double weight</text><rect fill="none" height="6" style="stroke:#C82930;stroke-width:1.0;" width="6" x="17" y="422.5391"/><text fill="#000000" font-family="sans-serif" font-size="11" lengthAdjust="spacing" textLength="134" x="29" y="429.958">LocalDateTime creationDate</text><polygon fill="none" points="20,435.375,16,441.375,24,441.375" style="stroke:#1963A0;stroke-width:1.0;"/><text fill="#000000" font-family="sans-serif" font-size="11" lengthAdjust="spacing" textLength="160" x="29" y="443.7939">Collection&lt;ItemListener&gt; listeners</text><line style="stroke:#A80036;stroke-width:1.5;" x1="10" x2="194" y1="450.2109" y2="450.2109"/></a><!--MD5=[3fd616f346a44cd59a91eb10b19e157c]
class User--><a href="java:core.User" target="_top" title="java:core.User" xlink:actuate="onRequest" xlink:href="java:core.User" xlink:show="new" xlink:title="java:core.User" xlink:type="simple"><rect codeLine="21" fill="#FEFECE" filter="url(#f1w2ge20wil2xn)" height="75.6719" id="User" style="stroke:#A80036;stroke-width:1.5;" width="107" x="230.5" y="278.5"/><ellipse cx="267.1" cy="294.5" fill="#ADD1B2" rx="11" ry="11" style="stroke:#A80036;stroke-width:1.0;"/><path d="M269.8656,290.375 Q270.0219,290.1563 270.2094,290.0469 Q270.3969,289.9375 270.6156,289.9375 Q270.9906,289.9375 271.225,290.2031 Q271.4594,290.4531 271.4594,291.0625 L271.4594,292.5156 Q271.4594,293.125 271.225,293.3906 Q270.9906,293.6563 270.6156,293.6563 Q270.2719,293.6563 270.0688,293.4531 Q269.8656,293.2656 269.7563,292.75 Q269.7094,292.3906 269.5219,292.2031 Q269.1938,291.8281 268.5844,291.6094 Q267.975,291.3906 267.35,291.3906 Q266.5844,291.3906 265.9438,291.7188 Q265.3188,292.0469 264.8188,292.7969 Q264.3344,293.5469 264.3344,294.5781 L264.3344,295.6719 Q264.3344,296.9063 265.225,297.7344 Q266.1156,298.5469 267.7094,298.5469 Q268.6469,298.5469 269.3031,298.2969 Q269.6938,298.1406 270.1156,297.7031 Q270.3813,297.4375 270.5219,297.3594 Q270.6781,297.2813 270.8813,297.2813 Q271.2094,297.2813 271.4594,297.5469 Q271.725,297.7969 271.725,298.1406 Q271.725,298.4844 271.3813,298.8906 Q270.8813,299.4688 270.0844,299.7969 Q269.0063,300.25 267.7094,300.25 Q266.1938,300.25 264.9906,299.625 Q264.0063,299.125 263.3188,298.0625 Q262.6313,296.9844 262.6313,295.7031 L262.6313,294.5469 Q262.6313,293.2188 263.2406,292.0781 Q263.8656,290.9219 264.9594,290.3125 Q266.0531,289.6875 267.2875,289.6875 Q268.0219,289.6875 268.6625,289.8594 Q269.3188,290.0156 269.8656,290.375 Z " fill="#000000"/><text fill="#000000" font-family="sans-serif" font-size="12" lengthAdjust="spacing" textLength="27" x="285.9" y="299.4102">User</text><line style="stroke:#A80036;stroke-width:1.5;" x1="231.5" x2="336.5" y1="310.5" y2="310.5"/><polygon fill="none" points="241.5,317.5,237.5,323.5,245.5,323.5" style="stroke:#1963A0;stroke-width:1.0;"/><text fill="#000000" font-family="sans-serif" font-size="11" lengthAdjust="spacing" textLength="80" x="250.5" y="325.9189">String userName</text><polygon fill="none" points="241.5,331.3359,237.5,337.3359,245.5,337.3359" style="stroke:#1963A0;stroke-width:1.0;"/><text fill="#000000" font-family="sans-serif" font-size="11" lengthAdjust="spacing" textLength="81" x="250.5" y="339.7549">String password</text><line style="stroke:#A80036;stroke-width:1.5;" x1="231.5" x2="336.5" y1="346.1719" y2="346.1719"/></a><!--MD5=[c5149b4909ffd2688ff51a939867f774]
class Warehouse--><a href="java:core.Warehouse" target="_top" title="java:core.Warehouse" xlink:actuate="onRequest" xlink:href="java:core.Warehouse" xlink:show="new" xlink:title="java:core.Warehouse" xlink:type="simple"><rect codeLine="26" fill="#FEFECE" filter="url(#f1w2ge20wil2xn)" height="89.5078" id="Warehouse" style="stroke:#A80036;stroke-width:1.5;" width="223" x="64.5" y="7"/><ellipse cx="139.75" cy="23" fill="#ADD1B2" rx="11" ry="11" style="stroke:#A80036;stroke-width:1.0;"/><path d="M142.5156,18.875 Q142.6719,18.6563 142.8594,18.5469 Q143.0469,18.4375 143.2656,18.4375 Q143.6406,18.4375 143.875,18.7031 Q144.1094,18.9531 144.1094,19.5625 L144.1094,21.0156 Q144.1094,21.625 143.875,21.8906 Q143.6406,22.1563 143.2656,22.1563 Q142.9219,22.1563 142.7188,21.9531 Q142.5156,21.7656 142.4063,21.25 Q142.3594,20.8906 142.1719,20.7031 Q141.8438,20.3281 141.2344,20.1094 Q140.625,19.8906 140,19.8906 Q139.2344,19.8906 138.5938,20.2188 Q137.9688,20.5469 137.4688,21.2969 Q136.9844,22.0469 136.9844,23.0781 L136.9844,24.1719 Q136.9844,25.4063 137.875,26.2344 Q138.7656,27.0469 140.3594,27.0469 Q141.2969,27.0469 141.9531,26.7969 Q142.3438,26.6406 142.7656,26.2031 Q143.0313,25.9375 143.1719,25.8594 Q143.3281,25.7813 143.5313,25.7813 Q143.8594,25.7813 144.1094,26.0469 Q144.375,26.2969 144.375,26.6406 Q144.375,26.9844 144.0313,27.3906 Q143.5313,27.9688 142.7344,28.2969 Q141.6563,28.75 140.3594,28.75 Q138.8438,28.75 137.6406,28.125 Q136.6563,27.625 135.9688,26.5625 Q135.2813,25.4844 135.2813,24.2031 L135.2813,23.0469 Q135.2813,21.7188 135.8906,20.5781 Q136.5156,19.4219 137.6094,18.8125 Q138.7031,18.1875 139.9375,18.1875 Q140.6719,18.1875 141.3125,18.3594 Q141.9688,18.5156 142.5156,18.875 Z " fill="#000000"/><text fill="#000000" font-family="sans-serif" font-size="12" lengthAdjust="spacing" textLength="64" x="160.25" y="27.9102">Warehouse</text><line style="stroke:#A80036;stroke-width:1.5;" x1="65.5" x2="286.5" y1="39" y2="39"/><rect fill="none" height="6" style="stroke:#C82930;stroke-width:1.0;" width="6" x="72.5" y="47"/><text fill="#000000" font-family="sans-serif" font-size="11" lengthAdjust="spacing" textLength="110" x="84.5" y="54.4189">Map&lt;String,Item&gt; items</text><rect fill="none" height="6" style="stroke:#C82930;stroke-width:1.0;" width="6" x="72.5" y="60.8359"/><text fill="#000000" font-family="sans-serif" font-size="11" lengthAdjust="spacing" textLength="197" x="84.5" y="68.2549">Collection&lt;WarehouseListener&gt; listeners</text><rect fill="none" height="6" style="stroke:#C82930;stroke-width:1.0;" width="6" x="72.5" y="74.6719"/><text fill="#000000" font-family="sans-serif" font-size="11" lengthAdjust="spacing" textLength="188" x="84.5" y="82.0908">Map&lt;String,ItemListener&gt; itemListeners</text><line style="stroke:#A80036;stroke-width:1.5;" x1="65.5" x2="286.5" y1="88.5078" y2="88.5078"/></a><!--MD5=[6c9d95e2e9e55a0ed9814a15ef92bcd0]
link Warehouse to User--><path codeLine="31" d="M166.09,97.46 C164.73,113.2 165.78,130.56 173,145 C182.94,164.88 198.72,157.97 213,175 C237.75,204.52 256.77,244.13 268.87,273.77 " fill="none" id="Warehouse-to-User" style="stroke:#A80036;stroke-width:1.0;"/><polygon fill="#A80036" points="270.75,278.44,271.0953,268.5972,268.8808,273.8026,263.6754,271.588,270.75,278.44" style="stroke:#A80036;stroke-width:1.0;"/><text fill="#000000" font-family="sans-serif" font-size="13" lengthAdjust="spacing" textLength="67" x="174" y="141.4951">currentUser</text><text fill="#000000" font-family="sans-serif" font-size="13" lengthAdjust="spacing" textLength="7" x="260.6617" y="267.5055">1</text><!--MD5=[6c9d95e2e9e55a0ed9814a15ef92bcd0]
link Warehouse to User--><path codeLine="32" d="M225.21,97.25 C233.15,106.4 240.55,116.48 246,127 C270.04,173.38 278.89,233.48 282.14,273.21 " fill="none" id="Warehouse-to-User-1" style="stroke:#A80036;stroke-width:1.0;"/><polygon fill="#A80036" points="282.54,278.43,285.8339,269.1483,282.1543,273.4449,277.8577,269.7653,282.54,278.43" style="stroke:#A80036;stroke-width:1.0;"/><text fill="#000000" font-family="sans-serif" font-size="13" lengthAdjust="spacing" textLength="32" x="253" y="141.4951">users</text><text fill="#000000" font-family="sans-serif" font-size="13" lengthAdjust="spacing" textLength="5" x="276.8346" y="267.7794">*</text><!--MD5=[359110e1595d24311d2678cef8c006a8]
link Warehouse to Item--><path codeLine="33" d="M118.88,97.01 C110.79,106 103.65,116.08 99,127 C93.3,140.39 89.67,154.82 87.56,169.52 " fill="none" id="Warehouse-to-Item" style="stroke:#A80036;stroke-width:1.0;"/><polygon fill="#A80036" points="86.9,174.51,92.0242,166.0992,87.543,169.5515,84.0907,165.0703,86.9,174.51" style="stroke:#A80036;stroke-width:1.0;"/><text fill="#000000" font-family="sans-serif" font-size="13" lengthAdjust="spacing" textLength="32" x="100" y="141.4951">items</text><text fill="#000000" font-family="sans-serif" font-size="13" lengthAdjust="spacing" textLength="5" x="80.9925" y="164.2749">*</text><!--MD5=[4e2911afaf10753ac40bbd2e126093a0]
@startuml
class Item [[java:core.Item]] {
	-String id
	-String name
	-int amount
	-String barcode
	-String brand
	-Double regularPrice
	-Double salePrice
	-Double purchasePrice
	-String section
	-String row
	-String shelf
	-Double height
	-Double width
	-Double length
	-Double weight
	-LocalDateTime creationDate
	~Collection<ItemListener> listeners

}
class User [[java:core.User]] {
	~String userName
	~String password

}
class Warehouse [[java:core.Warehouse]] {
	-Map<String,Item> items
	-Collection<WarehouseListener> listeners
	-Map<String,ItemListener> itemListeners
}
Warehouse - -> "1" User : currentUser
Warehouse - -> "*" User : users
Warehouse - -> "*" Item : items
@enduml

PlantUML version 1.2021.14(Fri Nov 12 17:46:50 CET 2021)
(GPL source distribution)
Java Runtime: OpenJDK Runtime Environment
JVM: OpenJDK 64-Bit Server VM
Default Encoding: Cp1252
Language: no
Country: NO
--></g></svg>